<?xml version="1.0" encoding="UTF-8" standalone="no"?>
<!-- Created with Inkscape (http://www.inkscape.org/) -->

<svg
   xmlns:dc="http://purl.org/dc/elements/1.1/"
   xmlns:cc="http://creativecommons.org/ns#"
   xmlns:rdf="http://www.w3.org/1999/02/22-rdf-syntax-ns#"
   xmlns:svg="http://www.w3.org/2000/svg"
   xmlns="http://www.w3.org/2000/svg"
   xmlns:sodipodi="http://sodipodi.sourceforge.net/DTD/sodipodi-0.dtd"
   xmlns:inkscape="http://www.inkscape.org/namespaces/inkscape"
   width="100px"
   height="100px"
   viewBox="0 0 100 100"
   version="1.1"
   id="SVGRoot"
   inkscape:version="0.92.5 (0.92.5+68)"
   sodipodi:docname="alda-logo-stacked.svg"
   inkscape:export-filename="/home/dave/2020-09 alda website redesign/2020-10-07-drawing.png"
   inkscape:export-xdpi="96"
   inkscape:export-ydpi="96">
  <defs
     id="defs815">
    <clipPath
       clipPathUnits="userSpaceOnUse"
       id="clipPath1405">
      <rect
         style="opacity:1;fill:#000000;fill-opacity:1;stroke:#030303;stroke-width:1.00157475;stroke-linecap:butt;stroke-linejoin:miter;stroke-miterlimit:4;stroke-dasharray:none;stroke-dashoffset:0;stroke-opacity:1"
         id="rect1407"
         width="66.40625"
         height="71.484375"
         x="-106.25"
         y="-13.28125"
         rx="21.9291"
         ry="21.222" />
    </clipPath>
    <clipPath
       clipPathUnits="userSpaceOnUse"
       id="clipPath1413">
      <rect
         style="opacity:1;fill:#000000;fill-opacity:1;stroke:#030303;stroke-width:1.00157475;stroke-linecap:butt;stroke-linejoin:miter;stroke-miterlimit:4;stroke-dasharray:none;stroke-dashoffset:0;stroke-opacity:1"
         id="rect1415"
         width="80.078125"
         height="77.734375"
         x="-55.46875"
         y="-107.03125"
         rx="21.9291"
         ry="21.222" />
    </clipPath>
  </defs>
  <sodipodi:namedview
     id="base"
     pagecolor="#ffffff"
     bordercolor="#666666"
     borderopacity="1.0"
     inkscape:pageopacity="0.0"
     inkscape:pageshadow="2"
     inkscape:zoom="5.656854"
     inkscape:cx="38.110421"
     inkscape:cy="64.096599"
     inkscape:document-units="px"
     inkscape:current-layer="layer1"
     showgrid="false"
     inkscape:window-width="1918"
     inkscape:window-height="1053"
     inkscape:window-x="0"
     inkscape:window-y="0"
     inkscape:window-maximized="0"
     inkscape:grid-bbox="true"
     showguides="false" />
  <metadata
     id="metadata818">
    <rdf:RDF>
      <cc:Work
         rdf:about="">
        <dc:format>image/svg+xml</dc:format>
        <dc:type
           rdf:resource="http://purl.org/dc/dcmitype/StillImage" />
        <dc:title />
      </cc:Work>
    </rdf:RDF>
  </metadata>
  <g
     inkscape:label="Layer 1"
     inkscape:groupmode="layer"
     id="layer1">
    <rect
       y="63.297493"
       x="1.989135"
       height="1.9368176"
       width="96.20726"
       id="rect3003"
       style="opacity:1;vector-effect:none;fill:#909090;fill-opacity:1;stroke:none;stroke-width:0.16765696;stroke-linecap:butt;stroke-linejoin:miter;stroke-miterlimit:4;stroke-dasharray:none;stroke-dashoffset:0;stroke-opacity:1" />
    <rect
       y="50.277569"
       x="1.2732836"
       height="1.9425192"
       width="96.490471"
       id="rect2999"
       style="opacity:1;vector-effect:none;fill:#909090;fill-opacity:1;stroke:none;stroke-width:0.5113343;stroke-linecap:round;stroke-linejoin:miter;stroke-miterlimit:4;stroke-dasharray:none;stroke-dashoffset:0;stroke-opacity:1" />
    <text
       xml:space="preserve"
       style="font-style:normal;font-weight:normal;font-size:40px;line-height:1.25;font-family:sans-serif;letter-spacing:0px;word-spacing:0px;fill:#000000;fill-opacity:1;stroke:none"
       x="-10.75"
       y="-90.875"
       id="text39932"><tspan
         sodipodi:role="line"
         id="tspan39930"
         x="-10.75"
         y="-55.484375" /></text>
    <text
       xml:space="preserve"
       style="font-style:normal;font-weight:normal;font-size:40px;line-height:1.25;font-family:sans-serif;letter-spacing:0px;word-spacing:0px;fill:#000000;fill-opacity:1;stroke:none"
       x="-0.75"
       y="-110.125"
       id="text39936"><tspan
         sodipodi:role="line"
         id="tspan39934"
         x="-0.75"
         y="-74.734375" /></text>
    <flowRoot
       xml:space="preserve"
       id="flowRoot39956"
       style="fill:black;fill-opacity:1;stroke:none;font-family:sans-serif;font-style:normal;font-weight:normal;font-size:40px;line-height:1.25;letter-spacing:0px;word-spacing:0px"><flowRegion
         id="flowRegion39958"><rect
           id="rect39960"
           width="401.63666"
           height="43.840622"
           x="1.4142135"
           y="-138.29498" /></flowRegion><flowPara
         id="flowPara39962" /></flowRoot>    <text
       xml:space="preserve"
       style="font-style:normal;font-weight:normal;font-size:40px;line-height:1.25;font-family:sans-serif;letter-spacing:0px;word-spacing:0px;fill:#000000;fill-opacity:1;stroke:none"
       x="287.08536"
       y="-176.47874"
       id="text39966"><tspan
         sodipodi:role="line"
         id="tspan39964"
         x="287.08536"
         y="-176.47874"> </tspan></text>
    <text
       xml:space="preserve"
       style="font-style:normal;font-weight:normal;font-size:40px;line-height:1.25;font-family:sans-serif;letter-spacing:0px;word-spacing:0px;fill:#000000;fill-opacity:1;stroke:none"
       x="162.63457"
       y="-184.25693"
       id="text39970"><tspan
         sodipodi:role="line"
         id="tspan39968"
         x="162.63457"
         y="-184.25693"> </tspan></text>
    <text
       xml:space="preserve"
       style="font-style:normal;font-weight:normal;font-size:40px;line-height:1.25;font-family:sans-serif;letter-spacing:0px;word-spacing:0px;fill:#000000;fill-opacity:1;stroke:none"
       x="159.80614"
       y="-177.89296"
       id="text39974"><tspan
         sodipodi:role="line"
         id="tspan39972"
         x="159.80614"
         y="-142.50233" /></text>
    <text
       xml:space="preserve"
       style="font-style:normal;font-weight:normal;font-size:40px;line-height:1.25;font-family:sans-serif;letter-spacing:0px;word-spacing:0px;fill:#000000;fill-opacity:1;stroke:none"
       x="-135.05739"
       y="112.72792"
       id="text39978"><tspan
         sodipodi:role="line"
         id="tspan39976"
         x="-135.05739"
         y="112.72792"> </tspan></text>
    <g
       style="fill:#909090;fill-opacity:1"
       id="g2869"
       transform="matrix(0.17044476,0,0,0.17044476,-10.7777,3.633013)">
      <g
         id="g2949"
         style="fill:#909090;fill-opacity:1">
        <path
           id="path2861"
           style="opacity:1;fill:#909090;fill-opacity:1;stroke:none;stroke-width:3;stroke-linecap:round;stroke-linejoin:miter;stroke-miterlimit:4;stroke-dasharray:none;stroke-dashoffset:0;stroke-opacity:1"
           transform="translate(429.92303,31.967713)"
           d="m 101.94994,130.7159 a 17.767208,17.767208 0 1 1 -35.534416,0 17.767208,17.767208 0 1 1 35.534416,0 z"
           inkscape:connector-curvature="0" />
        <path
           id="path2863"
           style="opacity:1;fill:#909090;fill-opacity:1;stroke:none;stroke-width:3;stroke-linecap:round;stroke-linejoin:miter;stroke-miterlimit:4;stroke-dasharray:none;stroke-dashoffset:0;stroke-opacity:1"
           transform="translate(429.92303,111.46773)"
           d="m 101.94994,130.7159 a 17.767208,17.767208 0 1 1 -35.534416,0 17.767208,17.767208 0 1 1 35.534416,0 z"
           inkscape:connector-curvature="0" />
        <rect
           id="rect2865"
           style="opacity:1;fill:#909090;fill-opacity:1;stroke:none;stroke-width:3;stroke-linecap:round;stroke-linejoin:miter;stroke-miterlimit:4;stroke-dasharray:none;stroke-dashoffset:0;stroke-opacity:1"
           y="45.047504"
           x="555.5"
           height="313.04129"
           width="16" />
        <rect
           id="rect2867"
           style="opacity:1;fill:#909090;fill-opacity:1;stroke:none;stroke-width:3;stroke-linecap:round;stroke-linejoin:miter;stroke-miterlimit:4;stroke-dasharray:none;stroke-dashoffset:0;stroke-opacity:1"
           y="42.933613"
           x="594.5"
           ry="2.5381727"
           height="319"
           width="49" />
      </g>
    </g>
    <g
       style="opacity:1;vector-effect:none;fill:#909090;fill-opacity:1;stroke:none;stroke-width:3;stroke-linecap:round;stroke-linejoin:miter;stroke-miterlimit:4;stroke-dasharray:none;stroke-dashoffset:0;stroke-opacity:1"
       transform="matrix(-0.17044476,0,0,-0.17044476,110.77771,72.640512)"
       id="g2879">
      <path
         id="path2871"
         style="opacity:1;vector-effect:none;fill:#909090;fill-opacity:1;stroke:none;stroke-width:3;stroke-linecap:round;stroke-linejoin:miter;stroke-miterlimit:4;stroke-dasharray:none;stroke-dashoffset:0;stroke-opacity:1"
         transform="translate(429.92303,31.967713)"
         d="m 101.94994,130.7159 a 17.767208,17.767208 0 1 1 -35.534416,0 17.767208,17.767208 0 1 1 35.534416,0 z"
         inkscape:connector-curvature="0" />
      <path
         id="path2873"
         style="opacity:1;vector-effect:none;fill:#909090;fill-opacity:1;stroke:none;stroke-width:3;stroke-linecap:round;stroke-linejoin:miter;stroke-miterlimit:4;stroke-dasharray:none;stroke-dashoffset:0;stroke-opacity:1"
         transform="translate(429.92303,111.46773)"
         d="m 101.94994,130.7159 a 17.767208,17.767208 0 1 1 -35.534416,0 17.767208,17.767208 0 1 1 35.534416,0 z"
         inkscape:connector-curvature="0" />
      <rect
         id="rect2875"
         style="opacity:1;vector-effect:none;fill:#909090;fill-opacity:1;stroke:none;stroke-width:3;stroke-linecap:round;stroke-linejoin:miter;stroke-miterlimit:4;stroke-dasharray:none;stroke-dashoffset:0;stroke-opacity:1"
         y="45.047504"
         x="555.5"
         height="313.04129"
         width="16" />
      <rect
         id="rect2877"
         style="opacity:1;vector-effect:none;fill:#909090;fill-opacity:1;stroke:none;stroke-width:3;stroke-linecap:round;stroke-linejoin:miter;stroke-miterlimit:4;stroke-dasharray:none;stroke-dashoffset:0;stroke-opacity:1"
         y="42.933613"
         x="594.5"
         ry="2.5381727"
         height="319"
         width="49" />
    </g>
    <rect
       style="opacity:1;vector-effect:none;fill:#909090;fill-opacity:1;stroke:none;stroke-width:0.16729446;stroke-linecap:butt;stroke-linejoin:miter;stroke-miterlimit:4;stroke-dasharray:none;stroke-dashoffset:0;stroke-opacity:1"
       id="rect2964"
       width="95.99926"
       height="1.9326302"
       x="1.6043195"
       y="11.02895" />
    <rect
       style="opacity:1;fill:#35c0ed;fill-opacity:0.82178219;stroke:#030303;stroke-width:0;stroke-linecap:butt;stroke-linejoin:miter;stroke-miterlimit:4;stroke-dasharray:none;stroke-dashoffset:0;stroke-opacity:1"
       id="rect1814"
       width="3.6914976"
       height="3.5204675"
       x="48.520927"
       y="17.128117"
       rx="0"
       ry="0" />
    <rect
       ry="0"
       rx="0"
       y="13.123779"
       x="48.520927"
       height="3.5204675"
       width="3.6914976"
       id="rect1816"
       style="opacity:1;fill:#35c0ed;fill-opacity:0.82178219;stroke:#030303;stroke-width:0;stroke-linecap:butt;stroke-linejoin:miter;stroke-miterlimit:4;stroke-dasharray:none;stroke-dashoffset:0;stroke-opacity:1" />
    <rect
       style="opacity:1;fill:#35c0ed;fill-opacity:0.82178219;stroke:#030303;stroke-width:0;stroke-linecap:butt;stroke-linejoin:miter;stroke-miterlimit:4;stroke-dasharray:none;stroke-dashoffset:0;stroke-opacity:1"
       id="rect1818"
       width="3.6914976"
       height="3.5204675"
       x="48.520927"
       y="9.1194439"
       rx="0"
       ry="0" />
    <rect
       ry="0"
       rx="0"
       y="5.1151066"
       x="48.520927"
       height="3.5204675"
       width="3.6914976"
       id="rect1820"
       style="opacity:1;fill:#35c0ed;fill-opacity:0.82178219;stroke:#030303;stroke-width:0;stroke-linecap:butt;stroke-linejoin:miter;stroke-miterlimit:4;stroke-dasharray:none;stroke-dashoffset:0;stroke-opacity:1" />
    <rect
       style="opacity:1;fill:#35c0ed;fill-opacity:0.82178219;stroke:#030303;stroke-width:0;stroke-linecap:butt;stroke-linejoin:miter;stroke-miterlimit:4;stroke-dasharray:none;stroke-dashoffset:0;stroke-opacity:1"
       id="rect1822"
       width="3.6914976"
       height="3.5204675"
       x="35.924313"
       y="61.175781"
       rx="0"
       ry="0" />
    <rect
       ry="0"
       rx="0"
       y="61.175781"
       x="40.123184"
       height="3.5204675"
       width="3.6914976"
       id="rect1824"
       style="opacity:1;fill:#35c0ed;fill-opacity:0.82178219;stroke:#030303;stroke-width:0;stroke-linecap:butt;stroke-linejoin:miter;stroke-miterlimit:4;stroke-dasharray:none;stroke-dashoffset:0;stroke-opacity:1" />
    <rect
       ry="0"
       rx="0"
       y="65.180092"
       x="35.924313"
       height="3.5204675"
       width="3.6914976"
       id="rect1826"
       style="opacity:1;fill:#35c0ed;fill-opacity:0.82178219;stroke:#030303;stroke-width:0;stroke-linecap:butt;stroke-linejoin:miter;stroke-miterlimit:4;stroke-dasharray:none;stroke-dashoffset:0;stroke-opacity:1" />
    <rect
       style="opacity:1;fill:#35c0ed;fill-opacity:0.82178219;stroke:#030303;stroke-width:0;stroke-linecap:butt;stroke-linejoin:miter;stroke-miterlimit:4;stroke-dasharray:none;stroke-dashoffset:0;stroke-opacity:1"
       id="rect1828"
       width="3.6914976"
       height="3.5204675"
       x="40.123184"
       y="65.180092"
       rx="0"
       ry="0" />
    <rect
       ry="0"
       rx="0"
       y="69.184555"
       x="35.924313"
       height="3.5204675"
       width="3.6914976"
       id="rect1830"
       style="opacity:1;fill:#35c0ed;fill-opacity:0.82178219;stroke:#030303;stroke-width:0;stroke-linecap:butt;stroke-linejoin:miter;stroke-miterlimit:4;stroke-dasharray:none;stroke-dashoffset:0;stroke-opacity:1" />
    <rect
       style="opacity:1;fill:#35c0ed;fill-opacity:0.82178219;stroke:#030303;stroke-width:0;stroke-linecap:butt;stroke-linejoin:miter;stroke-miterlimit:4;stroke-dasharray:none;stroke-dashoffset:0;stroke-opacity:1"
       id="rect1832"
       width="3.6914976"
       height="3.5204675"
       x="40.123184"
       y="69.184555"
       rx="0"
       ry="0" />
    <rect
       style="opacity:1;fill:#35c0ed;fill-opacity:0.82178219;stroke:#030303;stroke-width:0;stroke-linecap:butt;stroke-linejoin:miter;stroke-miterlimit:4;stroke-dasharray:none;stroke-dashoffset:0;stroke-opacity:1"
       id="rect1834"
       width="3.6914976"
       height="3.5204675"
       x="48.520935"
       y="57.171509"
       rx="0"
       ry="0" />
    <rect
       ry="0"
       rx="0"
       y="53.167137"
       x="48.520931"
       height="3.5204675"
       width="3.6914976"
       id="rect1836"
       style="opacity:1;fill:#35c0ed;fill-opacity:0.82178219;stroke:#030303;stroke-width:0;stroke-linecap:butt;stroke-linejoin:miter;stroke-miterlimit:4;stroke-dasharray:none;stroke-dashoffset:0;stroke-opacity:1" />
    <rect
       ry="0"
       rx="0"
       y="61.175781"
       x="27.526569"
       height="3.5204675"
       width="3.6914976"
       id="rect1838"
       style="opacity:1;fill:#35c0ed;fill-opacity:0.82178219;stroke:#030303;stroke-width:0;stroke-linecap:butt;stroke-linejoin:miter;stroke-miterlimit:4;stroke-dasharray:none;stroke-dashoffset:0;stroke-opacity:1" />
    <rect
       style="opacity:1;fill:#35c0ed;fill-opacity:0.82178219;stroke:#030303;stroke-width:0;stroke-linecap:butt;stroke-linejoin:miter;stroke-miterlimit:4;stroke-dasharray:none;stroke-dashoffset:0;stroke-opacity:1"
       id="rect1840"
       width="3.568388"
       height="3.4030621"
       x="48.582458"
       y="1.1694832"
       rx="0"
       ry="0" />
    <rect
       style="opacity:1;fill:#35c0ed;fill-opacity:0.82178219;stroke:#030303;stroke-width:0;stroke-linecap:butt;stroke-linejoin:miter;stroke-miterlimit:4;stroke-dasharray:none;stroke-dashoffset:0;stroke-opacity:1"
       id="rect1842"
       width="3.568388"
       height="3.4030621"
       x="27.588097"
       y="65.238892"
       rx="0"
       ry="0" />
    <rect
       ry="0"
       rx="0"
       y="9.1781597"
       x="52.781338"
       height="3.4030621"
       width="3.568388"
       id="rect1844"
       style="opacity:1;fill:#35c0ed;fill-opacity:0.82178219;stroke:#030303;stroke-width:0;stroke-linecap:butt;stroke-linejoin:miter;stroke-miterlimit:4;stroke-dasharray:none;stroke-dashoffset:0;stroke-opacity:1" />
    <rect
       style="opacity:1;fill:#35c0ed;fill-opacity:0.82178219;stroke:#030303;stroke-width:0;stroke-linecap:butt;stroke-linejoin:miter;stroke-miterlimit:4;stroke-dasharray:none;stroke-dashoffset:0;stroke-opacity:1"
       id="rect1846"
       width="3.568388"
       height="3.4030621"
       x="27.588097"
       y="69.243179"
       rx="0"
       ry="0" />
    <rect
       ry="0"
       rx="0"
       y="13.182499"
       x="52.781338"
       height="3.4030621"
       width="3.568388"
       id="rect1848"
       style="opacity:1;fill:#35c0ed;fill-opacity:0.82178219;stroke:#030303;stroke-width:0;stroke-linecap:butt;stroke-linejoin:miter;stroke-miterlimit:4;stroke-dasharray:none;stroke-dashoffset:0;stroke-opacity:1" />
    <rect
       ry="0"
       rx="0"
       y="21.191132"
       x="48.582458"
       height="3.4030621"
       width="3.568388"
       id="rect1850"
       style="opacity:1;fill:#35c0ed;fill-opacity:0.82178219;stroke:#030303;stroke-width:0;stroke-linecap:butt;stroke-linejoin:miter;stroke-miterlimit:4;stroke-dasharray:none;stroke-dashoffset:0;stroke-opacity:1" />
    <rect
       style="opacity:1;fill:#35c0ed;fill-opacity:0.82178219;stroke:#030303;stroke-width:0;stroke-linecap:butt;stroke-linejoin:miter;stroke-miterlimit:4;stroke-dasharray:none;stroke-dashoffset:0;stroke-opacity:1"
       id="rect1852"
       width="3.568388"
       height="3.4030621"
       x="56.980213"
       y="13.182499"
       rx="0"
       ry="0" />
    <rect
       ry="0"
       rx="0"
       y="37.208485"
       x="48.582462"
       height="3.4030621"
       width="3.568388"
       id="rect1854"
       style="opacity:1;fill:#35c0ed;fill-opacity:0.82178219;stroke:#030303;stroke-width:0;stroke-linecap:butt;stroke-linejoin:miter;stroke-miterlimit:4;stroke-dasharray:none;stroke-dashoffset:0;stroke-opacity:1" />
    <rect
       style="opacity:1;fill:#35c0ed;fill-opacity:0.82178219;stroke:#030303;stroke-width:0;stroke-linecap:butt;stroke-linejoin:miter;stroke-miterlimit:4;stroke-dasharray:none;stroke-dashoffset:0;stroke-opacity:1"
       id="rect1856"
       width="3.568388"
       height="3.4030621"
       x="44.383591"
       y="57.230133"
       rx="0"
       ry="0" />
    <rect
       style="opacity:1;fill:#35c0ed;fill-opacity:0.82178219;stroke:#030303;stroke-width:0;stroke-linecap:butt;stroke-linejoin:miter;stroke-miterlimit:4;stroke-dasharray:none;stroke-dashoffset:0;stroke-opacity:1"
       id="rect1858"
       width="3.568388"
       height="3.4030621"
       x="48.582462"
       y="41.21286"
       rx="0"
       ry="0" />
    <rect
       ry="0"
       rx="0"
       y="61.234596"
       x="44.383591"
       height="3.4030621"
       width="3.568388"
       id="rect1860"
       style="opacity:1;fill:#35c0ed;fill-opacity:0.82178219;stroke:#030303;stroke-width:0;stroke-linecap:butt;stroke-linejoin:miter;stroke-miterlimit:4;stroke-dasharray:none;stroke-dashoffset:0;stroke-opacity:1" />
    <rect
       style="opacity:1;fill:#35c0ed;fill-opacity:0.82178219;stroke:#030303;stroke-width:0;stroke-linecap:butt;stroke-linejoin:miter;stroke-miterlimit:4;stroke-dasharray:none;stroke-dashoffset:0;stroke-opacity:1"
       id="rect1862"
       width="3.568388"
       height="3.4030621"
       x="48.582462"
       y="45.217167"
       rx="0"
       ry="0" />
    <rect
       ry="0"
       rx="0"
       y="65.238892"
       x="44.383591"
       height="3.4030621"
       width="3.568388"
       id="rect1864"
       style="opacity:1;fill:#35c0ed;fill-opacity:0.82178219;stroke:#030303;stroke-width:0;stroke-linecap:butt;stroke-linejoin:miter;stroke-miterlimit:4;stroke-dasharray:none;stroke-dashoffset:0;stroke-opacity:1" />
    <rect
       ry="0"
       rx="0"
       y="49.221542"
       x="48.582462"
       height="3.4030621"
       width="3.568388"
       id="rect1866"
       style="opacity:1;fill:#35c0ed;fill-opacity:0.82178219;stroke:#030303;stroke-width:0;stroke-linecap:butt;stroke-linejoin:miter;stroke-miterlimit:4;stroke-dasharray:none;stroke-dashoffset:0;stroke-opacity:1" />
    <rect
       style="opacity:1;fill:#35c0ed;fill-opacity:0.82178219;stroke:#030303;stroke-width:0;stroke-linecap:butt;stroke-linejoin:miter;stroke-miterlimit:4;stroke-dasharray:none;stroke-dashoffset:0;stroke-opacity:1"
       id="rect1868"
       width="3.568388"
       height="3.4030621"
       x="40.184715"
       y="57.230141"
       rx="0"
       ry="0" />
    <rect
       style="opacity:1;fill:#35c0ed;fill-opacity:0.82178219;stroke:#030303;stroke-width:0;stroke-linecap:butt;stroke-linejoin:miter;stroke-miterlimit:4;stroke-dasharray:none;stroke-dashoffset:0;stroke-opacity:1"
       id="rect1870"
       width="3.568388"
       height="3.4030621"
       x="31.786968"
       y="57.230141"
       rx="0"
       ry="0" />
    <rect
       ry="0"
       rx="0"
       y="57.230141"
       x="35.985836"
       height="3.4030621"
       width="3.568388"
       id="rect1872"
       style="opacity:1;fill:#35c0ed;fill-opacity:0.82178219;stroke:#030303;stroke-width:0;stroke-linecap:butt;stroke-linejoin:miter;stroke-miterlimit:4;stroke-dasharray:none;stroke-dashoffset:0;stroke-opacity:1" />
    <rect
       ry="0"
       rx="0"
       y="61.234604"
       x="31.786968"
       height="3.4030621"
       width="3.568388"
       id="rect1874"
       style="opacity:1;fill:#35c0ed;fill-opacity:0.82178219;stroke:#030303;stroke-width:0;stroke-linecap:butt;stroke-linejoin:miter;stroke-miterlimit:4;stroke-dasharray:none;stroke-dashoffset:0;stroke-opacity:1" />
    <rect
       style="opacity:1;fill:#35c0ed;fill-opacity:0.82178219;stroke:#030303;stroke-width:0;stroke-linecap:butt;stroke-linejoin:miter;stroke-miterlimit:4;stroke-dasharray:none;stroke-dashoffset:0;stroke-opacity:1"
       id="rect1876"
       width="3.568388"
       height="3.4030621"
       x="48.582458"
       y="25.195511"
       rx="0"
       ry="0" />
    <rect
       ry="0"
       rx="0"
       y="65.238892"
       x="31.786968"
       height="3.4030621"
       width="3.568388"
       id="rect1878"
       style="opacity:1;fill:#35c0ed;fill-opacity:0.82178219;stroke:#030303;stroke-width:0;stroke-linecap:butt;stroke-linejoin:miter;stroke-miterlimit:4;stroke-dasharray:none;stroke-dashoffset:0;stroke-opacity:1" />
    <rect
       style="opacity:1;fill:#35c0ed;fill-opacity:0.82178219;stroke:#030303;stroke-width:0;stroke-linecap:butt;stroke-linejoin:miter;stroke-miterlimit:4;stroke-dasharray:none;stroke-dashoffset:0;stroke-opacity:1"
       id="rect1880"
       width="3.568388"
       height="3.4030621"
       x="48.582458"
       y="29.19981"
       rx="0"
       ry="0" />
    <rect
       style="opacity:1;fill:#35c0ed;fill-opacity:0.82178219;stroke:#030303;stroke-width:0;stroke-linecap:butt;stroke-linejoin:miter;stroke-miterlimit:4;stroke-dasharray:none;stroke-dashoffset:0;stroke-opacity:1"
       id="rect1882"
       width="3.568388"
       height="3.4030621"
       x="31.786968"
       y="69.243179"
       rx="0"
       ry="0" />
    <rect
       ry="0"
       rx="0"
       y="33.204189"
       x="48.582458"
       height="3.4030621"
       width="3.568388"
       id="rect1884"
       style="opacity:1;fill:#35c0ed;fill-opacity:0.82178219;stroke:#030303;stroke-width:0;stroke-linecap:butt;stroke-linejoin:miter;stroke-miterlimit:4;stroke-dasharray:none;stroke-dashoffset:0;stroke-opacity:1" />
    <rect
       ry="0"
       rx="0"
       y="69.243179"
       x="23.389223"
       height="3.4030621"
       width="3.568388"
       id="rect1886"
       style="opacity:1;fill:#35c0ed;fill-opacity:0.82178219;stroke:#030303;stroke-width:0;stroke-linecap:butt;stroke-linejoin:miter;stroke-miterlimit:4;stroke-dasharray:none;stroke-dashoffset:0;stroke-opacity:1" />
    <rect
       style="opacity:1;fill:#35c0ed;fill-opacity:0.82178219;stroke:#030303;stroke-width:0;stroke-linecap:butt;stroke-linejoin:miter;stroke-miterlimit:4;stroke-dasharray:none;stroke-dashoffset:0;stroke-opacity:1"
       id="rect1888"
       width="3.568388"
       height="3.4030621"
       x="23.389223"
       y="65.238892"
       rx="0"
       ry="0" />
    <rect
       style="opacity:1;fill:#35c0ed;fill-opacity:0.82178219;stroke:#030303;stroke-width:0;stroke-linecap:butt;stroke-linejoin:miter;stroke-miterlimit:4;stroke-dasharray:none;stroke-dashoffset:0;stroke-opacity:1"
       id="rect1890"
       width="3.568388"
       height="3.4030621"
       x="27.588097"
       y="73.247475"
       rx="0"
       ry="0" />
    <rect
       ry="0"
       rx="0"
       y="73.247475"
       x="35.985844"
       height="3.4030621"
       width="3.568388"
       id="rect1892"
       style="opacity:1;fill:#35c0ed;fill-opacity:0.82178219;stroke:#030303;stroke-width:0;stroke-linecap:butt;stroke-linejoin:miter;stroke-miterlimit:4;stroke-dasharray:none;stroke-dashoffset:0;stroke-opacity:1" />
    <rect
       ry="0"
       rx="0"
       y="73.247475"
       x="31.786968"
       height="3.4030621"
       width="3.568388"
       id="rect1894"
       style="opacity:1;fill:#35c0ed;fill-opacity:0.82178219;stroke:#030303;stroke-width:0;stroke-linecap:butt;stroke-linejoin:miter;stroke-miterlimit:4;stroke-dasharray:none;stroke-dashoffset:0;stroke-opacity:1" />
    <path
       style="fill:#35c0ed;fill-opacity:0.82178219;stroke:none;stroke-width:1.01034355px;stroke-linecap:butt;stroke-linejoin:miter;stroke-opacity:1"
       d="m 48.582472,65.238855 h 3.568371 l -3.568371,3.403055 z"
       id="path1896"
       inkscape:connector-curvature="0" />
    <path
       inkscape:connector-curvature="0"
       id="path1898"
       d="m 44.383595,69.243193 h 3.568371 l -3.568371,3.403055 z"
       style="fill:#35c0ed;fill-opacity:0.82178219;stroke:none;stroke-width:1.01034355px;stroke-linecap:butt;stroke-linejoin:miter;stroke-opacity:1" />
    <path
       style="fill:#35c0ed;fill-opacity:0.82178219;stroke:none;stroke-width:1.01034355px;stroke-linecap:butt;stroke-linejoin:miter;stroke-opacity:1"
       d="m 40.184729,73.247524 h 3.568394 l -3.568394,3.403054 z"
       id="path1900"
       inkscape:connector-curvature="0" />
    <path
       inkscape:connector-curvature="0"
       id="path1902"
       d="m 26.972223,73.262124 v 3.568394 l -3.403054,-3.568394 z"
       style="fill:#35c0ed;fill-opacity:0.82178219;stroke:none;stroke-width:1.01034355px;stroke-linecap:butt;stroke-linejoin:miter;stroke-opacity:1" />
    <path
       style="fill:#35c0ed;fill-opacity:0.82178219;stroke:none;stroke-width:1.01034355px;stroke-linecap:butt;stroke-linejoin:miter;stroke-opacity:1"
       d="m 26.957623,64.637578 h -3.568394 l 3.568394,-3.403054 z"
       id="path1904"
       inkscape:connector-curvature="0" />
    <path
       inkscape:connector-curvature="0"
       id="path1906"
       d="m 31.156495,60.633254 h -3.568394 l 3.568394,-3.403078 z"
       style="fill:#35c0ed;fill-opacity:0.82178219;stroke:none;stroke-width:1.01034355px;stroke-linecap:butt;stroke-linejoin:miter;stroke-opacity:1" />
    <rect
       ry="0"
       rx="0"
       y="61.234596"
       x="48.58247"
       height="3.4030621"
       width="3.568388"
       id="rect1908"
       style="opacity:1;fill:#35c0ed;fill-opacity:0.82178219;stroke:#030303;stroke-width:0;stroke-linecap:butt;stroke-linejoin:miter;stroke-miterlimit:4;stroke-dasharray:none;stroke-dashoffset:0;stroke-opacity:1" />
    <path
       inkscape:connector-curvature="0"
       id="path1910"
       d="M 52.766713,8.562264 V 4.993893 l 3.403079,3.568371 z"
       style="fill:#35c0ed;fill-opacity:0.82178219;stroke:none;stroke-width:1.01034355px;stroke-linecap:butt;stroke-linejoin:miter;stroke-opacity:1" />
    <path
       style="fill:#35c0ed;fill-opacity:0.82178219;stroke:none;stroke-width:1.01034355px;stroke-linecap:butt;stroke-linejoin:miter;stroke-opacity:1"
       d="m 56.96559,12.566594 v -3.56837 l 3.403076,3.56837 z"
       id="path1912"
       inkscape:connector-curvature="0" />
    <path
       inkscape:connector-curvature="0"
       id="path1914"
       d="m 61.164466,16.57095 v -3.568394 l 3.403077,3.568394 z"
       style="fill:#35c0ed;fill-opacity:0.82178219;stroke:none;stroke-width:1.01034355px;stroke-linecap:butt;stroke-linejoin:miter;stroke-opacity:1" />
    <path
       style="fill:#35c0ed;fill-opacity:0.82178219;stroke:none;stroke-width:1.01034355px;stroke-linecap:butt;stroke-linejoin:miter;stroke-opacity:1"
       d="m 65.168827,20.769825 v -3.568393 l 3.403054,3.568393 z"
       id="path1916"
       inkscape:connector-curvature="0" />
    <path
       inkscape:connector-curvature="0"
       id="path1918"
       d="m 64.567543,17.201432 v 3.568393 l -3.403077,-3.568393 z"
       style="fill:#35c0ed;fill-opacity:0.82178219;stroke:none;stroke-width:1.01034355px;stroke-linecap:butt;stroke-linejoin:miter;stroke-opacity:1" />
    <path
       style="fill:#35c0ed;fill-opacity:0.82178219;stroke:none;stroke-width:1.01034355px;stroke-linecap:butt;stroke-linejoin:miter;stroke-opacity:1"
       d="m 69.196023,40.269032 h 3.568394 l -3.568394,3.403079 z"
       id="path1960"
       inkscape:connector-curvature="0" />
    <path
       inkscape:connector-curvature="0"
       id="path1962"
       d="m 65.058715,44.214666 h 3.568372 l -3.568372,3.403078 z"
       style="fill:#35c0ed;fill-opacity:0.82178219;stroke:none;stroke-width:1.01034355px;stroke-linecap:butt;stroke-linejoin:miter;stroke-opacity:1" />
    <path
       style="fill:#35c0ed;fill-opacity:0.82178219;stroke:none;stroke-width:1.01034355px;stroke-linecap:butt;stroke-linejoin:miter;stroke-opacity:1"
       d="m 68.627087,43.672111 h -3.568372 l 3.568372,-3.403079 z"
       id="path1964"
       inkscape:connector-curvature="0" />
    <rect
       ry="0"
       rx="0"
       y="32.848824"
       x="69.291862"
       height="3.1196136"
       width="3.2711737"
       id="rect1974"
       style="opacity:1;fill:#35c0ed;fill-opacity:0.82178219;stroke:#030303;stroke-width:0;stroke-linecap:butt;stroke-linejoin:miter;stroke-miterlimit:4;stroke-dasharray:none;stroke-dashoffset:0;stroke-opacity:1" />
    <rect
       style="opacity:1;vector-effect:none;fill:#909090;fill-opacity:1;stroke:none;stroke-width:0.16935654;stroke-linecap:butt;stroke-linejoin:miter;stroke-miterlimit:4;stroke-dasharray:none;stroke-dashoffset:0;stroke-opacity:1"
       id="rect3001"
       width="97.182541"
       height="1.9564518"
       x="1.4500604"
       y="37.242863" />
    <rect
       style="opacity:1;fill:#35c0ed;fill-opacity:0.82178219;stroke:#030303;stroke-width:0;stroke-linecap:butt;stroke-linejoin:miter;stroke-miterlimit:4;stroke-dasharray:none;stroke-dashoffset:0;stroke-opacity:1"
       id="rect1947"
       width="3.2711737"
       height="3.1196136"
       x="69.291862"
       y="29.186649"
       rx="0"
       ry="0" />
    <rect
       y="24.123478"
       x="1.6268369"
       height="1.9564518"
       width="97.182541"
       id="rect3160"
       style="opacity:1;vector-effect:none;fill:#909090;fill-opacity:1;stroke:none;stroke-width:0.16935654;stroke-linecap:butt;stroke-linejoin:miter;stroke-miterlimit:4;stroke-dasharray:none;stroke-dashoffset:0;stroke-opacity:1" />
    <path
       style="fill:#35c0ed;fill-opacity:0.82178219;stroke:none;stroke-width:1.01034355px;stroke-linecap:butt;stroke-linejoin:miter;stroke-opacity:1"
       d="m 68.571881,21.400307 v 3.568394 l -3.403054,-3.568394 z"
       id="path1922"
       inkscape:connector-curvature="0" />
    <path
       inkscape:connector-curvature="0"
       id="path1920"
       d="m 69.173163,24.968701 v -3.568394 l 3.403056,3.568394 z"
       style="fill:#35c0ed;fill-opacity:0.82178219;stroke:none;stroke-width:1.01034355px;stroke-linecap:butt;stroke-linejoin:miter;stroke-opacity:1" />
    <rect
       ry="0"
       rx="0"
       y="36.510998"
       x="69.291862"
       height="3.1196136"
       width="3.2711737"
       id="rect1958"
       style="opacity:1;fill:#35c0ed;fill-opacity:0.82178219;stroke:#030303;stroke-width:0;stroke-linecap:butt;stroke-linejoin:miter;stroke-miterlimit:4;stroke-dasharray:none;stroke-dashoffset:0;stroke-opacity:1" />
    <rect
       ry="0"
       rx="0"
       y="25.524467"
       x="69.291862"
       height="3.1196136"
       width="3.2711737"
       id="rect1945"
       style="opacity:1;fill:#35c0ed;fill-opacity:0.82178219;stroke:#030303;stroke-width:0;stroke-linecap:butt;stroke-linejoin:miter;stroke-miterlimit:4;stroke-dasharray:none;stroke-dashoffset:0;stroke-opacity:1" />
    <g
       aria-label="alda"
       style="font-style:normal;font-weight:normal;font-size:21.33333397px;line-height:1.25;font-family:sans-serif;letter-spacing:0px;word-spacing:0px;fill:#000000;fill-opacity:1;stroke:none"
       id="text3164">
      <path
         d="m 33.604166,97.75 q -0.114583,-0.21875 -0.1875,-0.541667 -0.0625,-0.333333 -0.09375,-0.6875 -0.291666,0.291667 -0.65625,0.552084 -0.354166,0.260416 -0.791666,0.458333 -0.427084,0.197917 -0.916667,0.3125 -0.489583,0.114583 -1.041667,0.114583 -0.895833,0 -1.625,-0.260416 Q 27.572916,97.4375 27.062499,97 q -0.5,-0.447917 -0.78125,-1.052083 -0.270833,-0.614584 -0.270833,-1.322917 0,-0.927083 0.364583,-1.625 0.375,-0.697917 1.052084,-1.15625 0.677083,-0.46875 1.625,-0.697917 0.958333,-0.229167 2.135417,-0.229167 h 2.104166 V 90.03125 q 0,-0.510417 -0.1875,-0.916667 -0.1875,-0.40625 -0.53125,-0.6875 -0.34375,-0.291667 -0.84375,-0.447917 -0.489583,-0.15625 -1.104166,-0.15625 -0.572917,0 -1.03125,0.145834 -0.447917,0.145833 -0.760417,0.385416 -0.3125,0.239584 -0.489584,0.572917 -0.166666,0.322917 -0.166666,0.677083 h -1.9375 q 0.01042,-0.614583 0.3125,-1.208333 0.3125,-0.59375 0.885416,-1.0625 0.583334,-0.479167 1.40625,-0.770833 0.833334,-0.291667 1.885417,-0.291667 0.958334,0 1.78125,0.239583 0.822917,0.229167 1.416667,0.708334 0.604167,0.46875 0.947917,1.177083 0.34375,0.708333 0.34375,1.65625 v 5.239584 q 0,0.5625 0.104166,1.197916 0.104167,0.625 0.291667,1.09375 V 97.75 Z m -3.40625,-1.46875 q 0.5625,0 1.052084,-0.145833 0.489583,-0.145834 0.885416,-0.385417 0.40625,-0.239583 0.697917,-0.541667 0.291667,-0.3125 0.458333,-0.645833 V 92.28125 H 31.5 q -1.6875,0 -2.625001,0.5 -0.9375,0.5 -0.9375,1.572917 0,0.416666 0.135417,0.770833 0.145833,0.354167 0.427083,0.614583 0.28125,0.25 0.708334,0.395834 0.427083,0.145833 0.989583,0.145833 z"
         style="font-style:normal;font-variant:normal;font-weight:normal;font-stretch:normal;font-size:21.33333397px;font-family:'Roboto Mono for Powerline';-inkscape-font-specification:'Roboto Mono for Powerline';font-variant-ligatures:normal;font-variant-caps:normal;font-variant-numeric:normal;font-feature-settings:normal;text-align:start;writing-mode:lr-tb;text-anchor:start"
         id="path916" />
      <path
         d="m 39.291666,81.75 h 5.760417 v 14.333333 h 3.677084 V 97.75 H 39.291666 V 96.083333 H 43.125 v -12.65625 h -3.833334 z"
         style="font-style:normal;font-variant:normal;font-weight:normal;font-stretch:normal;font-size:21.33333397px;font-family:'Roboto Mono for Powerline';-inkscape-font-specification:'Roboto Mono for Powerline';font-variant-ligatures:normal;font-variant-caps:normal;font-variant-numeric:normal;font-feature-settings:normal;text-align:start;writing-mode:lr-tb;text-anchor:start"
         id="path918" />
      <path
         d="m 51.416667,92.020833 q 0,-1.260417 0.3125,-2.3125 0.322916,-1.0625 0.90625,-1.822917 0.59375,-0.760416 1.427083,-1.1875 0.833333,-0.427083 1.864584,-0.427083 1.010416,0 1.760416,0.34375 Q 58.447917,86.947916 59,87.59375 V 81.75 h 1.927084 v 16 H 59.15625 l -0.08333,-1.1875 q -0.5625,0.6875 -1.34375,1.041667 -0.78125,0.354166 -1.822917,0.354166 -1.020833,0 -1.854167,-0.4375 -0.822916,-0.4375 -1.40625,-1.208333 Q 52.0625,95.541667 51.739583,94.5 51.416667,93.447917 51.416667,92.239583 Z m 1.927083,0.21875 q 0,0.822917 0.177083,1.5625 0.177084,0.739584 0.541667,1.302084 0.375,0.5625 0.947917,0.895833 0.572917,0.322917 1.375,0.322917 0.489583,0 0.885417,-0.114584 0.395833,-0.114583 0.71875,-0.322916 Q 58.3125,95.666667 58.5625,95.375 58.8125,95.072917 59,94.708333 v -5.229167 q -0.375,-0.6875 -1.010416,-1.125 -0.635417,-0.447916 -1.583334,-0.447916 -0.8125,0 -1.395833,0.333333 -0.572917,0.333333 -0.947917,0.90625 -0.364583,0.5625 -0.541667,1.3125 -0.177083,0.739583 -0.177083,1.5625 z"
         style="font-style:normal;font-variant:normal;font-weight:normal;font-stretch:normal;font-size:21.33333397px;font-family:'Roboto Mono for Powerline';-inkscape-font-specification:'Roboto Mono for Powerline';font-variant-ligatures:normal;font-variant-caps:normal;font-variant-numeric:normal;font-feature-settings:normal;text-align:start;writing-mode:lr-tb;text-anchor:start"
         id="path920" />
      <path
         d="m 71.979166,97.75 q -0.114583,-0.21875 -0.1875,-0.541667 -0.0625,-0.333333 -0.09375,-0.6875 Q 71.40625,96.8125 71.041666,97.072917 70.6875,97.333333 70.25,97.53125 q -0.427084,0.197917 -0.916667,0.3125 -0.489583,0.114583 -1.041667,0.114583 -0.895833,0 -1.625,-0.260416 Q 65.947916,97.4375 65.437499,97 q -0.5,-0.447917 -0.78125,-1.052083 -0.270833,-0.614584 -0.270833,-1.322917 0,-0.927083 0.364583,-1.625 0.375,-0.697917 1.052084,-1.15625 0.677083,-0.46875 1.625,-0.697917 0.958333,-0.229167 2.135417,-0.229167 h 2.104166 V 90.03125 q 0,-0.510417 -0.1875,-0.916667 -0.1875,-0.40625 -0.53125,-0.6875 -0.34375,-0.291667 -0.84375,-0.447917 Q 69.614583,87.822916 69,87.822916 q -0.572917,0 -1.03125,0.145834 -0.447917,0.145833 -0.760417,0.385416 -0.3125,0.239584 -0.489584,0.572917 -0.166666,0.322917 -0.166666,0.677083 h -1.9375 q 0.01042,-0.614583 0.3125,-1.208333 0.3125,-0.59375 0.885416,-1.0625 0.583334,-0.479167 1.40625,-0.770833 0.833334,-0.291667 1.885417,-0.291667 0.958334,0 1.78125,0.239583 0.822917,0.229167 1.416667,0.708334 0.604167,0.46875 0.947917,1.177083 0.34375,0.708333 0.34375,1.65625 v 5.239584 q 0,0.5625 0.104166,1.197916 0.104167,0.625 0.291667,1.09375 V 97.75 Z m -3.40625,-1.46875 q 0.5625,0 1.052084,-0.145833 0.489583,-0.145834 0.885416,-0.385417 0.40625,-0.239583 0.697917,-0.541667 Q 71.5,94.895833 71.666666,94.5625 V 92.28125 H 69.875 q -1.6875,0 -2.625001,0.5 -0.9375,0.5 -0.9375,1.572917 0,0.416666 0.135417,0.770833 0.145833,0.354167 0.427083,0.614583 0.28125,0.25 0.708334,0.395834 0.427083,0.145833 0.989583,0.145833 z"
         style="font-style:normal;font-variant:normal;font-weight:normal;font-stretch:normal;font-size:21.33333397px;font-family:'Roboto Mono for Powerline';-inkscape-font-specification:'Roboto Mono for Powerline';font-variant-ligatures:normal;font-variant-caps:normal;font-variant-numeric:normal;font-feature-settings:normal;text-align:start;writing-mode:lr-tb;text-anchor:start"
         id="path922" />
    </g>
    <text
       xml:space="preserve"
       style="font-style:normal;font-weight:normal;font-size:40px;line-height:1.25;font-family:sans-serif;letter-spacing:0px;word-spacing:0px;fill:#000000;fill-opacity:1;stroke:none"
       x="107.25"
       y="75.75"
       id="text3168"><tspan
         sodipodi:role="line"
         id="tspan3166"
         x="107.25"
         y="111.14062" /></text>
    <text
       xml:space="preserve"
       style="font-style:normal;font-weight:normal;font-size:40px;line-height:1.25;font-family:sans-serif;letter-spacing:0px;word-spacing:0px;fill:#000000;fill-opacity:1;stroke:none"
       x="110"
       y="77.375"
       id="text3172"><tspan
         sodipodi:role="line"
         id="tspan3170"
         x="110"
         y="112.76562" /></text>
  </g>
</svg>
